<svg xmlns="http://www.w3.org/2000/svg" viewBox="0.60 -21.00 185.07 43.74">
  <title>nissARTango — Côte d’Azur</title>
  <path fill="#171614" d="M2.49 0V-14.67H4.8V-12.18H5.22Q5.7 -13.23 6.86 -14.08Q8.01 -14.94 10.26 -14.94Q11.91 -14.94 13.21 -14.25Q14.52 -13.56 15.3 -12.21Q16.08 -10.86 16.08 -8.88V0H13.71V-8.7Q13.71 -10.89 12.61 -11.88Q11.52 -12.87 9.66 -12.87Q7.53 -12.87 6.19 -11.49Q4.86 -10.11 4.86 -7.38V0ZM20.88 0V-14.67H23.25V0ZM22.08 -16.95Q21.3 -16.95 20.77 -17.46Q20.25 -17.97 20.25 -18.75Q20.25 -19.56 20.77 -20.07Q21.3 -20.58 22.08 -20.58Q22.86 -20.58 23.37 -20.07Q23.88 -19.56 23.88 -18.75Q23.88 -17.97 23.37 -17.46Q22.86 -16.95 22.08 -16.95ZM34.14 0.42Q31.41 0.42 29.54 -0.84Q27.66 -2.1 27.27 -4.83L29.52 -5.34Q29.76 -3.9 30.42 -3.08Q31.08 -2.25 32.05 -1.91Q33.03 -1.56 34.14 -1.56Q35.79 -1.56 36.75 -2.22Q37.71 -2.88 37.71 -3.99Q37.71 -5.13 36.8 -5.59Q35.88 -6.06 34.29 -6.36L33.06 -6.57Q31.65 -6.81 30.48 -7.32Q29.31 -7.83 28.62 -8.7Q27.93 -9.57 27.93 -10.89Q27.93 -12.87 29.46 -13.98Q30.99 -15.09 33.51 -15.09Q36 -15.09 37.55 -13.96Q39.09 -12.84 39.54 -10.8L37.32 -10.23Q37.05 -11.82 36.03 -12.46Q35.01 -13.11 33.51 -13.11Q32.01 -13.11 31.14 -12.55Q30.27 -12 30.27 -10.92Q30.27 -9.87 31.1 -9.38Q31.92 -8.88 33.3 -8.64L34.53 -8.43Q36.09 -8.16 37.34 -7.7Q38.58 -7.23 39.31 -6.36Q40.05 -5.49 40.05 -4.08Q40.05 -1.92 38.45 -0.75Q36.84 0.42 34.14 0.42ZM49.95 0.42Q47.22 0.42 45.34 -0.84Q43.47 -2.1 43.08 -4.83L45.33 -5.34Q45.57 -3.9 46.23 -3.08Q46.89 -2.25 47.86 -1.91Q48.84 -1.56 49.95 -1.56Q51.6 -1.56 52.56 -2.22Q53.52 -2.88 53.52 -3.99Q53.52 -5.13 52.6 -5.59Q51.69 -6.06 50.1 -6.36L48.87 -6.57Q47.46 -6.81 46.29 -7.32Q45.12 -7.83 44.43 -8.7Q43.74 -9.57 43.74 -10.89Q43.74 -12.87 45.27 -13.98Q46.8 -15.09 49.32 -15.09Q51.81 -15.09 53.35 -13.96Q54.9 -12.84 55.35 -10.8L53.13 -10.23Q52.86 -11.82 51.84 -12.46Q50.82 -13.11 49.32 -13.11Q47.82 -13.11 46.95 -12.55Q46.08 -12 46.08 -10.92Q46.08 -9.87 46.91 -9.38Q47.73 -8.88 49.11 -8.64L50.34 -8.43Q51.9 -8.16 53.14 -7.7Q54.39 -7.23 55.12 -6.36Q55.86 -5.49 55.86 -4.08Q55.86 -1.92 54.25 -0.75Q52.65 0.42 49.95 0.42Z"/>
  <path fill="#D85A30" d="M58.11 0 64.59 -21H69.03L75.51 0H72.9L71.28 -5.31H62.34L60.72 0ZM62.97 -7.59H70.62L67.02 -19.47H66.6ZM79.16 0V-21H87.65Q89.6 -21 91.08 -20.32Q92.57 -19.65 93.41 -18.41Q94.25 -17.16 94.25 -15.42V-15.09Q94.25 -13.02 93.26 -11.82Q92.27 -10.62 90.92 -10.2V-9.78Q92 -9.75 92.7 -9.07Q93.41 -8.4 93.41 -7.05V0H90.92V-6.75Q90.92 -7.65 90.42 -8.13Q89.93 -8.61 88.94 -8.61H81.68V0ZM81.68 -10.89H87.41Q89.48 -10.89 90.6 -11.89Q91.73 -12.9 91.73 -14.7V-14.91Q91.73 -16.71 90.62 -17.71Q89.51 -18.72 87.41 -18.72H81.68ZM103.42 0V-18.72H96.67V-21H112.69V-18.72H105.94V0Z"/>
  <path fill="#171614" d="M120.99 0.42Q119.46 0.42 118.2 -0.12Q116.94 -0.66 116.22 -1.68Q115.5 -2.7 115.5 -4.17Q115.5 -5.67 116.22 -6.64Q116.94 -7.62 118.2 -8.12Q119.46 -8.61 121.02 -8.61H125.97V-9.69Q125.97 -11.25 125.06 -12.15Q124.14 -13.05 122.34 -13.05Q120.57 -13.05 119.58 -12.2Q118.59 -11.34 118.23 -9.9L116.01 -10.62Q116.37 -11.85 117.15 -12.86Q117.93 -13.86 119.24 -14.47Q120.54 -15.09 122.37 -15.09Q125.19 -15.09 126.75 -13.63Q128.31 -12.18 128.31 -9.54V-2.91Q128.31 -2.01 129.15 -2.01H130.5V0H128.43Q127.44 0 126.84 -0.55Q126.24 -1.11 126.24 -2.04V-2.19H125.88Q125.55 -1.62 125 -1Q124.44 -0.39 123.48 0.01Q122.52 0.42 120.99 0.42ZM121.26 -1.62Q123.36 -1.62 124.66 -2.86Q125.97 -4.11 125.97 -6.36V-6.69H121.11Q119.7 -6.69 118.78 -6.07Q117.87 -5.46 117.87 -4.23Q117.87 -3 118.81 -2.31Q119.76 -1.62 121.26 -1.62ZM133.74 0V-14.67H136.05V-12.18H136.47Q136.95 -13.23 138.1 -14.08Q139.26 -14.94 141.51 -14.94Q143.16 -14.94 144.47 -14.25Q145.77 -13.56 146.55 -12.21Q147.33 -10.86 147.33 -8.88V0H144.96V-8.7Q144.96 -10.89 143.87 -11.88Q142.77 -12.87 140.91 -12.87Q138.78 -12.87 137.44 -11.49Q136.11 -10.11 136.11 -7.38V0ZM151.41 -7.26V-7.68Q151.41 -9.99 152.34 -11.64Q153.27 -13.29 154.86 -14.19Q156.45 -15.09 158.34 -15.09Q160.65 -15.09 161.89 -14.21Q163.14 -13.32 163.74 -12.24H164.16V-14.67H166.41V3.42Q166.41 4.62 165.75 5.31Q165.09 6 163.83 6H153.87V3.9H163.2Q164.1 3.9 164.1 3V-2.58H163.68Q163.32 -1.92 162.66 -1.29Q162 -0.66 160.95 -0.25Q159.9 0.15 158.34 0.15Q156.45 0.15 154.86 -0.75Q153.27 -1.65 152.34 -3.31Q151.41 -4.98 151.41 -7.26ZM158.97 -1.95Q161.25 -1.95 162.68 -3.39Q164.1 -4.83 164.1 -7.35V-7.59Q164.1 -10.14 162.68 -11.56Q161.25 -12.99 158.97 -12.99Q156.72 -12.99 155.26 -11.56Q153.81 -10.14 153.81 -7.59V-7.35Q153.81 -4.83 155.26 -3.39Q156.72 -1.95 158.97 -1.95ZM178.17 0.42Q175.95 0.42 174.25 -0.51Q172.56 -1.44 171.62 -3.13Q170.67 -4.83 170.67 -7.14V-7.53Q170.67 -9.81 171.62 -11.52Q172.56 -13.23 174.25 -14.16Q175.95 -15.09 178.17 -15.09Q180.39 -15.09 182.09 -14.16Q183.78 -13.23 184.73 -11.52Q185.67 -9.81 185.67 -7.53V-7.14Q185.67 -4.83 184.73 -3.13Q183.78 -1.44 182.09 -0.51Q180.39 0.42 178.17 0.42ZM178.17 -1.71Q180.51 -1.71 181.91 -3.19Q183.3 -4.68 183.3 -7.2V-7.47Q183.3 -9.99 181.91 -11.47Q180.51 -12.96 178.17 -12.96Q175.86 -12.96 174.45 -11.47Q173.04 -9.99 173.04 -7.47V-7.2Q173.04 -4.68 174.45 -3.19Q175.86 -1.71 178.17 -1.71Z"/>
  <path fill="#6B6660" d="M3.33 22.74Q2.08 22.74 1.34 22.02Q0.6 21.29 0.6 19.9V18.3Q0.6 16.91 1.34 16.19Q2.08 15.46 3.33 15.46Q4.57 15.46 5.24 16.15Q5.9 16.84 5.9 18.04V18.09H5.07V18.01Q5.07 17.22 4.64 16.72Q4.22 16.21 3.33 16.21Q2.44 16.21 1.94 16.76Q1.44 17.3 1.44 18.28V19.92Q1.44 20.9 1.94 21.45Q2.44 21.99 3.33 21.99Q4.22 21.99 4.64 21.48Q5.07 20.98 5.07 20.19V20.03H5.9V20.16Q5.9 21.36 5.24 22.05Q4.57 22.74 3.33 22.74ZM15.76 22.74Q14.51 22.74 13.77 22.02Q13.02 21.29 13.02 19.9V18.3Q13.02 16.91 13.77 16.19Q14.51 15.46 15.76 15.46Q17.02 15.46 17.77 16.19Q18.51 16.91 18.51 18.3V19.9Q18.51 21.29 17.77 22.02Q17.02 22.74 15.76 22.74ZM15.76 21.99Q16.67 21.99 17.17 21.45Q17.67 20.9 17.67 19.93V18.27Q17.67 17.3 17.17 16.76Q16.67 16.21 15.76 16.21Q14.86 16.21 14.36 16.76Q13.86 17.3 13.86 18.27V19.93Q13.86 20.9 14.36 21.45Q14.86 21.99 15.76 21.99ZM14.02 15.02 15.29 13.81H16.24L17.51 15.02H16.54L15.83 14.29H15.7L14.99 15.02ZM27.32 22.6V16.36H25.07V15.6H30.41V16.36H28.16V22.6ZM37.48 22.6V15.6H41.79V16.36H38.32V18.7H41.51V19.46H38.32V21.84H41.84V22.6ZM57.35 22.6V21.85H58.33V16.35H57.35V15.6H60.08Q61.46 15.6 62.21 16.3Q62.97 17 62.97 18.45V19.75Q62.97 21.21 62.21 21.91Q61.46 22.6 60.08 22.6ZM59.17 21.84H60.08Q61.1 21.84 61.62 21.34Q62.14 20.84 62.14 19.79V18.42Q62.14 17.35 61.62 16.86Q61.1 16.37 60.08 16.37H59.17ZM70.16 17.92V17.42H70.45Q70.81 17.42 70.81 17.06V16.74H70.67Q70.38 16.74 70.19 16.56Q69.99 16.38 69.99 16.11Q69.99 15.82 70.19 15.64Q70.38 15.46 70.67 15.46Q70.96 15.46 71.15 15.65Q71.34 15.84 71.34 16.13V17.06Q71.34 17.92 70.48 17.92ZM77.3 22.6 79.46 15.6H80.94L83.1 22.6H82.23L81.69 20.83H78.71L78.17 22.6ZM78.92 20.07H81.47L80.27 16.11H80.13ZM89.85 22.6V21.49L93.75 16.47V16.35H89.97V15.6H94.58V16.71L90.68 21.73V21.85H94.66V22.6ZM104.45 22.74Q103.67 22.74 103.09 22.46Q102.51 22.18 102.19 21.62Q101.87 21.07 101.87 20.26V15.6H102.7V20.27Q102.7 21.13 103.16 21.56Q103.62 21.99 104.45 21.99Q105.28 21.99 105.74 21.56Q106.2 21.13 106.2 20.27V15.6H107.04V20.26Q107.04 21.07 106.72 21.62Q106.4 22.18 105.81 22.46Q105.23 22.74 104.45 22.74ZM114.58 22.6V15.6H117.41Q118.06 15.6 118.55 15.83Q119.05 16.05 119.33 16.47Q119.61 16.88 119.61 17.46V17.57Q119.61 18.26 119.28 18.66Q118.95 19.06 118.5 19.2V19.34Q118.86 19.35 119.09 19.58Q119.33 19.8 119.33 20.25V22.6H118.5V20.35Q118.5 20.05 118.33 19.89Q118.17 19.73 117.84 19.73H115.42V22.6ZM115.42 18.97H117.33Q118.02 18.97 118.39 18.64Q118.77 18.3 118.77 17.7V17.63Q118.77 17.03 118.4 16.7Q118.03 16.36 117.33 16.36H115.42Z"/>
</svg>
